<?xml version="1.0" encoding="iso-8859-1"?>
<!-- Uploaded to: SVG Repo, www.svgrepo.com, Generator: SVG Repo Mixer Tools -->
<svg fill="#0073C6" height="800px" width="800px" version="1.1" id="Layer_1" xmlns="http://www.w3.org/2000/svg" xmlns:xlink="http://www.w3.org/1999/xlink" 
	 viewBox="0 0 392.598 392.598" xml:space="preserve">
<g>
	<g>
		<path d="M132.137,226.877c-21.657-6.659-45.059-6.659-66.715,0c-14.545,4.461-24.242,17.519-24.242,32.582v27.798
			c0,6.012,4.848,10.925,10.925,10.925h93.414c6.012,0,10.925-4.849,10.925-10.925v-27.798
			C156.444,244.461,146.683,231.273,132.137,226.877z M134.594,276.461H62.966v-16.937c0-5.43,3.556-10.15,8.857-11.766
			c17.455-5.301,36.461-5.301,53.915,0c5.301,1.616,8.857,6.335,8.857,11.766V276.461z"/>
	</g>
</g>
<g>
	<g>
		<path d="M98.844,131.976c-20.105,0-36.461,16.356-36.461,36.461c0,20.105,16.291,36.461,36.461,36.461
			c20.105,0,36.461-16.356,36.461-36.461C135.305,148.331,118.95,131.976,98.844,131.976z M98.844,183.046
			c-8.081,0-14.675-6.594-14.675-14.675c0-8.081,6.529-14.675,14.675-14.675c8.146,0,14.675,6.594,14.675,14.675
			S106.925,183.046,98.844,183.046z"/>
	</g>
</g>
<g>
	<g>
		<path d="M274.877,0.032c-61.867,0-112.743,40.016-117.269,90.634H41.826C18.812,90.667,0,109.414,0,132.493V298.44
			c0,23.014,18.747,41.826,41.826,41.826h64.388l-21.592,35.749c-2.004,3.426-2.069,7.564-0.129,10.99
			c1.939,3.426,5.56,5.56,9.503,5.56h113.907h0.065c6.012,0,10.925-4.849,10.925-10.925c0-2.521-0.905-4.913-2.392-6.788
			l-20.881-34.586h64.388c23.014,0,41.826-18.747,41.826-41.826V193.39c51.976-10.214,90.764-49.002,90.764-95.354
			C392.533,43.992,339.782,0.032,274.877,0.032z M113.261,370.78l18.36-30.513h38.529l18.36,30.513H113.261z M280.048,228.493
			h-43.572c-6.012,0-10.925,4.849-10.925,10.925c0,6.012,4.849,10.925,10.925,10.925h43.572v21.786h-21.786
			c-6.012,0-10.925,4.848-10.925,10.925c0,6.012,4.848,10.925,10.925,10.925h21.786v4.461c0,11.055-8.986,20.04-20.04,20.04H41.826
			c-11.055,0-20.04-8.986-20.04-20.04V132.493c0-11.055,8.986-20.04,20.04-20.04h116.687c3.038,16.873,11.184,32.84,23.984,46.287
			c0,28.057-0.388,61.026-0.388,61.349c-0.065,3.943,1.939,7.628,5.43,9.503c3.103,1.681,8.792,1.745,10.925,0.065l60.768-34.651
			c5.495,0.646,16.614,1.164,20.945,0.711L280.048,228.493z M274.877,174.255c-5.107,0-10.537-0.388-16.485-1.228
			c-2.392-0.323-4.784,0.129-6.853,1.293l-47.451,27.022c0.065-13.317,0.259-31.354,0.129-47.127c0-2.909-1.228-5.818-3.297-7.822
			c-14.158-13.705-21.915-30.836-21.915-48.356c0-42.02,43.055-76.218,95.871-76.218s95.871,34.133,95.871,76.218
			C370.747,140.057,327.693,174.255,274.877,174.255z"/>
	</g>
</g>
<g>
	<g>
		<path d="M223.03,87.111h-7.24c-6.012,0-10.925,4.848-10.925,10.925s4.849,10.925,10.925,10.925h7.24
			c6.012,0,10.925-4.848,10.925-10.925C233.891,92.089,229.042,87.111,223.03,87.111z"/>
	</g>
</g>
<g>
	<g>
		<path d="M278.497,87.111h-7.24c-6.012,0-10.925,4.848-10.925,10.925s4.849,10.925,10.925,10.925h7.24
			c6.012,0,10.925-4.848,10.925-10.925C289.358,92.089,284.509,87.111,278.497,87.111z"/>
	</g>
</g>
<g>
	<g>
		<path d="M333.899,87.111h-7.24c-6.012,0-10.925,4.848-10.925,10.925s4.849,10.925,10.925,10.925h7.24
			c6.012,0,10.925-4.848,10.925-10.925C344.76,92.089,339.911,87.111,333.899,87.111z"/>
	</g>
</g>
</svg>